<svg width="24" height="24" viewBox="0 0 24 24" fill="none" xmlns="http://www.w3.org/2000/svg">
<path d="M2 10.6266L1.5652 9.60676C1.16626 9.77684 0.90312 10.1639 0.89169 10.5974C0.880259 11.0309 1.12264 11.4313 1.51206 11.6222L2 10.6266ZM13.5804 22L12.5935 22.5051C12.789 22.8871 13.1873 23.122 13.6162 23.1081C14.0451 23.0942 14.4275 22.8341 14.5979 22.4403L13.5804 22ZM22.2346 2L23.2522 2.44029C23.4323 2.02393 23.3406 1.53981 23.0207 1.21815C22.7008 0.89649 22.2172 0.802202 21.7998 0.980122L22.2346 2ZM1.51206 11.6222L9.20012 15.3903L10.176 13.3992L2.48794 9.63109L1.51206 11.6222ZM8.70111 14.8999L12.5935 22.5051L14.5673 21.4949L10.675 13.8896L8.70111 14.8999ZM14.5979 22.4403L23.2522 2.44029L21.2171 1.55971L12.5629 21.5597L14.5979 22.4403ZM21.7998 0.980122L1.5652 9.60676L2.4348 11.6465L22.6694 3.01988L21.7998 0.980122ZM10.4672 15.1835L23.0138 2.78872L21.4555 1.21128L8.90888 13.606L10.4672 15.1835Z" fill="#171717" fill-opacity="0.77"/>
</svg>
