<svg width="24" height="24" viewBox="0 0 24 24" fill="none" xmlns="http://www.w3.org/2000/svg">
<path d="M2.75 2C2.75 1.80109 2.67098 1.61032 2.53033 1.46967C2.38968 1.32902 2.19891 1.25 2 1.25C1.80109 1.25 1.61032 1.32902 1.46967 1.46967C1.32902 1.61032 1.25 1.80109 1.25 2V12.057C1.25 14.366 1.25 16.175 1.44 17.587C1.634 19.031 2.04 20.171 2.934 21.066C3.829 21.961 4.969 22.366 6.414 22.56C7.825 22.75 9.634 22.75 11.943 22.75H22C22.1989 22.75 22.3897 22.671 22.5303 22.5303C22.671 22.3897 22.75 22.1989 22.75 22C22.75 21.8011 22.671 21.6103 22.5303 21.4697C22.3897 21.329 22.1989 21.25 22 21.25H12C9.622 21.25 7.914 21.248 6.614 21.074C5.335 20.902 4.564 20.574 3.994 20.005C3.425 19.435 3.098 18.665 2.926 17.386C2.752 16.086 2.75 14.378 2.75 12V2Z" fill="black"/>
<path d="M19.587 7.46601C19.6526 7.38942 19.702 7.30039 19.7324 7.20424C19.7628 7.1081 19.7735 7.00681 19.7638 6.90644C19.7542 6.80607 19.7244 6.70867 19.6763 6.62007C19.6281 6.53148 19.5626 6.4535 19.4836 6.39081C19.4046 6.32811 19.3138 6.28198 19.2166 6.25518C19.1194 6.22838 19.0178 6.22146 18.9178 6.23483C18.8179 6.2482 18.7217 6.28159 18.6349 6.33299C18.5482 6.3844 18.4727 6.45277 18.413 6.53401L15.295 10.46C15.05 10.769 14.889 10.97 14.756 11.116C14.626 11.259 14.566 11.299 14.538 11.314C14.434 11.3694 14.3184 11.3996 14.2006 11.402C14.0829 11.4045 13.9661 11.3791 13.86 11.328C13.832 11.315 13.77 11.278 13.633 11.141C13.495 11.001 13.325 10.806 13.067 10.508L13.05 10.49C12.813 10.216 12.61 9.98201 12.43 9.80201C12.2461 9.60535 12.0295 9.44194 11.79 9.31901C11.4712 9.1659 11.1208 9.09009 10.7672 9.09774C10.4136 9.10538 10.0669 9.19627 9.75498 9.36301C9.52044 9.49598 9.31068 9.66852 9.13498 9.87301C8.96498 10.061 8.77197 10.303 8.54597 10.588L5.41298 14.534C5.34739 14.6106 5.29793 14.6996 5.26754 14.7958C5.23715 14.8919 5.22646 14.9932 5.23611 15.0936C5.24576 15.194 5.27555 15.2914 5.3237 15.38C5.37185 15.4685 5.43737 15.5465 5.51634 15.6092C5.59532 15.6719 5.68613 15.718 5.78333 15.7448C5.88054 15.7716 5.98216 15.7786 6.0821 15.7652C6.18205 15.7518 6.27827 15.7184 6.36502 15.667C6.45176 15.6156 6.52725 15.5473 6.58698 15.466L9.70598 11.54C9.95098 11.231 10.112 11.03 10.244 10.884C10.374 10.741 10.434 10.701 10.462 10.686C10.5659 10.6306 10.6815 10.6004 10.7993 10.598C10.9171 10.5956 11.0338 10.6209 11.14 10.672C11.169 10.685 11.231 10.722 11.367 10.859C11.506 10.999 11.675 11.194 11.934 11.492L11.95 11.51C12.188 11.784 12.39 12.018 12.57 12.198C12.755 12.385 12.959 12.56 13.21 12.681C13.5288 12.8341 13.8792 12.9099 14.2327 12.9023C14.5863 12.8946 14.9331 12.8038 15.245 12.637C15.4793 12.5037 15.689 12.3312 15.865 12.127C16.035 11.939 16.228 11.697 16.455 11.412L19.587 7.46601Z" fill="black"/>
</svg>
