<svg width="202" height="47" viewBox="0 0 202 47" fill="none" xmlns="http://www.w3.org/2000/svg">
<path d="M2.58239 35V8.81818H7.32528V31.0241H18.8565V35H2.58239ZM22.7685 35V15.3636H27.3963V35H22.7685ZM25.0952 12.5767C24.3622 12.5767 23.7315 12.3338 23.2031 11.848C22.6747 11.3537 22.4105 10.7614 22.4105 10.071C22.4105 9.37216 22.6747 8.77983 23.2031 8.29403C23.7315 7.79971 24.3622 7.55256 25.0952 7.55256C25.8366 7.55256 26.4673 7.79971 26.9872 8.29403C27.5156 8.77983 27.7798 9.37216 27.7798 10.071C27.7798 10.7614 27.5156 11.3537 26.9872 11.848C26.4673 12.3338 25.8366 12.5767 25.0952 12.5767ZM54.6424 23.4943V35H50.0146V8.81818H54.5401V18.7003H54.7702C55.2305 17.5923 55.9421 16.7187 56.9052 16.0795C57.8768 15.4318 59.1126 15.108 60.6126 15.108C61.9762 15.108 63.1651 15.3935 64.1793 15.9645C65.1935 16.5355 65.9776 17.3707 66.5316 18.4702C67.0941 19.5696 67.3754 20.9119 67.3754 22.4972V35H62.7475V23.2131C62.7475 21.892 62.4066 20.8651 61.7248 20.1321C61.0515 19.3906 60.1055 19.0199 58.8867 19.0199C58.0685 19.0199 57.3356 19.1989 56.6879 19.5568C56.0487 19.9062 55.5458 20.4134 55.1793 21.0781C54.8214 21.7429 54.6424 22.5483 54.6424 23.4943ZM81.8981 15.3636V18.9432H70.6097V15.3636H81.8981ZM73.3967 10.6591H78.0245V29.0938C78.0245 29.7159 78.1183 30.1932 78.3058 30.5256C78.5018 30.8494 78.7575 31.071 79.0728 31.1903C79.3881 31.3097 79.7376 31.3693 80.1211 31.3693C80.4109 31.3693 80.6751 31.348 80.9137 31.3054C81.1609 31.2628 81.3484 31.2244 81.4762 31.1903L82.256 34.8082C82.0089 34.8935 81.6552 34.9872 81.195 35.0895C80.7433 35.1918 80.1893 35.2514 79.533 35.2685C78.3739 35.3026 77.3299 35.1278 76.4009 34.7443C75.4719 34.3523 74.7347 33.7472 74.1893 32.929C73.6523 32.1108 73.3881 31.0881 73.3967 29.8608V10.6591ZM90.3963 23.4943V35H85.7685V15.3636H90.1918V18.7003H90.4219C90.8736 17.6009 91.5938 16.7273 92.5824 16.0795C93.5795 15.4318 94.8111 15.108 96.277 15.108C97.6321 15.108 98.8125 15.3977 99.8182 15.9773C100.832 16.5568 101.616 17.3963 102.17 18.4957C102.733 19.5952 103.01 20.929 103.001 22.4972V35H98.3736V23.2131C98.3736 21.9006 98.0327 20.8736 97.3509 20.1321C96.6776 19.3906 95.7443 19.0199 94.5511 19.0199C93.7415 19.0199 93.0213 19.1989 92.3906 19.5568C91.7685 19.9062 91.2784 20.4134 90.9205 21.0781C90.571 21.7429 90.3963 22.5483 90.3963 23.4943ZM107.706 35V15.3636H112.334V35H107.706ZM110.033 12.5767C109.3 12.5767 108.669 12.3338 108.141 11.848C107.612 11.3537 107.348 10.7614 107.348 10.071C107.348 9.37216 107.612 8.77983 108.141 8.29403C108.669 7.79971 109.3 7.55256 110.033 7.55256C110.774 7.55256 111.405 7.79971 111.925 8.29403C112.453 8.77983 112.717 9.37216 112.717 10.071C112.717 10.7614 112.453 11.3537 111.925 11.848C111.405 12.3338 110.774 12.5767 110.033 12.5767ZM121.721 23.4943V35H117.093V15.3636H121.516V18.7003H121.746C122.198 17.6009 122.918 16.7273 123.907 16.0795C124.904 15.4318 126.135 15.108 127.601 15.108C128.956 15.108 130.137 15.3977 131.142 15.9773C132.157 16.5568 132.941 17.3963 133.495 18.4957C134.057 19.5952 134.334 20.929 134.326 22.4972V35H129.698V23.2131C129.698 21.9006 129.357 20.8736 128.675 20.1321C128.002 19.3906 127.069 19.0199 125.875 19.0199C125.066 19.0199 124.346 19.1989 123.715 19.5568C123.093 19.9062 122.603 20.4134 122.245 21.0781C121.895 21.7429 121.721 22.5483 121.721 23.4943Z" fill="#919191"/>
<path d="M157.094 35V8.81818H167.117C169.009 8.81818 170.581 9.11648 171.834 9.71307C173.096 10.3011 174.037 11.1065 174.659 12.1293C175.29 13.152 175.605 14.3111 175.605 15.6065C175.605 16.6719 175.401 17.5838 174.992 18.3423C174.583 19.0923 174.033 19.7017 173.343 20.1705C172.652 20.6392 171.881 20.9759 171.029 21.1804V21.4361C171.958 21.4872 172.848 21.7727 173.701 22.2926C174.561 22.804 175.265 23.5284 175.81 24.4659C176.355 25.4034 176.628 26.5369 176.628 27.8665C176.628 29.2216 176.3 30.4403 175.644 31.5227C174.988 32.5966 173.999 33.4446 172.678 34.0668C171.357 34.6889 169.695 35 167.692 35H157.094ZM161.837 31.0369H166.938C168.659 31.0369 169.9 30.7088 170.658 30.0526C171.425 29.3878 171.809 28.5355 171.809 27.4957C171.809 26.7202 171.617 26.0213 171.233 25.3991C170.85 24.7685 170.304 24.2741 169.597 23.9162C168.89 23.5497 168.046 23.3665 167.066 23.3665H161.837V31.0369ZM161.837 19.9531H166.529C167.347 19.9531 168.084 19.804 168.74 19.5057C169.397 19.1989 169.912 18.7685 170.287 18.2145C170.671 17.652 170.863 16.9872 170.863 16.2202C170.863 15.206 170.505 14.3707 169.789 13.7145C169.081 13.0582 168.029 12.7301 166.631 12.7301H161.837V19.9531Z" fill="#148A09"/>
<path d="M180.754 35V8.81818H190.572C192.584 8.81818 194.271 9.16761 195.635 9.86648C197.007 10.5653 198.043 11.5455 198.741 12.8068C199.449 14.0597 199.803 15.5213 199.803 17.1918C199.803 18.8707 199.445 20.3281 198.729 21.5639C198.021 22.7912 196.977 23.7415 195.597 24.4148C194.216 25.0795 192.52 25.4119 190.509 25.4119H183.516V21.4744H189.869C191.045 21.4744 192.009 21.3125 192.759 20.9886C193.509 20.6562 194.063 20.1747 194.42 19.544C194.787 18.9048 194.97 18.1207 194.97 17.1918C194.97 16.2628 194.787 15.4702 194.42 14.8139C194.054 14.1491 193.496 13.6463 192.746 13.3054C191.996 12.956 191.028 12.7812 189.844 12.7812H185.497V35H180.754ZM194.28 23.1364L200.761 35H195.469L189.102 23.1364H194.28Z" fill="#D6C000"/>
<path d="M32 16V33.05H36.8V47L48 28.4H41.6L48 16H32Z" fill="#919191"/>
<path d="M139 16V33.05H143.8V47L155 28.4H148.6L155 16H139Z" fill="#919191"/>
</svg>
