<svg width="201" height="60" viewBox="0 0 201 60" fill="none" xmlns="http://www.w3.org/2000/svg">
<path d="M37.6857 34.8148L21.8437 22.4629L46.5918 7.85357L24.1194 22.4629L39.9614 34.8148L32.4046 41.4788C33.7744 42.1912 35.129 42.851 36.4568 43.4487L52.7812 32.8524L35.224 21.3247L57.6297 0L19.8009 22.3307L35.9514 34.9235L30.4583 40.4351C30.8105 40.6297 31.1618 40.8231 31.5124 41.0106L37.6857 34.8148Z" fill="#FECE00"/>
<path d="M21.175 51.3823L26.7577 45.7803C26.411 45.5892 26.064 45.3924 25.7165 45.1937L10.9615 60L30.1247 47.5607C29.1656 47.0791 28.2003 46.5711 27.2316 46.0411L21.1748 51.3825L21.175 51.3823Z" fill="#FECE00"/>
<path d="M27.2317 46.041C27.0738 45.9545 26.916 45.8684 26.7579 45.7803L21.1751 51.3824L27.2319 46.041H27.2317Z" fill="#FECE00"/>
<path d="M24.1192 22.4629L46.5916 7.85358L21.8435 22.4629L37.6856 34.8148L31.5122 41.0106C31.8104 41.1698 32.1075 41.3254 32.4043 41.479L39.9611 34.815L24.119 22.463L24.1192 22.4629Z" fill="#FECE00"/>
<path d="M51.1256 36.1496L48.2225 38.0339C51.2008 41.4153 52.5021 44.414 51.4244 46.2433C50.8231 47.2629 49.5435 47.8101 47.7665 47.9281C50.9946 48.0967 53.3629 47.3865 54.3556 45.7034C55.6651 43.4827 54.3323 39.9889 51.1254 36.1496H51.1256ZM10.1259 19.6294C9.64615 20.4434 9.52192 21.4292 9.71375 22.5398C9.77586 22.2847 9.87093 22.0453 10.0014 21.8233C11.0939 19.97 14.4224 19.6729 18.9142 20.6902L22.7045 18.4527C16.4898 16.7512 11.6624 17.0235 10.1259 19.6296V19.6294Z" fill="#182F6C"/>
<path d="M54.5056 38.7598C57.0242 42.0714 57.9957 44.9503 56.8986 46.811C54.3077 51.2061 41.1611 48.2562 27.5346 40.2235C13.9081 32.1906 4.96219 22.116 7.55329 17.7208C9.01999 15.2322 13.8713 15.0988 20.2768 16.9089C10.6425 13.7322 2.9397 13.744 0.66419 17.6039C-2.79173 23.4662 7.57923 35.9837 23.8281 45.5627C40.0769 55.1418 56.0509 58.1538 59.5068 52.2912C61.3418 49.1784 59.2778 44.1891 54.5056 38.7597V38.7598Z" fill="#182F6C"/>
<path d="M78.8814 23.9939H75.0504L72.5437 37.9939C72.2835 39.4128 73.1112 40.5479 74.6246 40.5479H82.5468L83.1617 36.9771H76.5401L78.8812 23.9941L78.8814 23.9939ZM88.7192 26.9264C90.2327 26.9264 91.226 26.0515 91.226 24.7271C91.226 23.6866 90.5639 23.1189 89.2159 23.1189C87.6552 23.1189 86.7092 23.9466 86.7092 25.2236C86.7092 26.3351 87.3713 26.9263 88.7192 26.9263V26.9264ZM88.0571 40.5479L88.601 37.3554L90.1855 28.5111H86.4726L85.9051 31.6799L84.8883 37.3554L84.3444 40.5479H88.0573H88.0571ZM100.614 30.4028C100.023 29.0785 98.8409 28.298 97.0437 28.298C94.2058 28.298 91.8647 30.2609 91.2971 33.619C90.6351 37.379 92.0539 40.2877 95.5776 40.2877C96.9017 40.2877 98.1316 39.8621 98.9355 38.7505L98.8174 39.3653C98.3918 41.7301 97.4458 42.2269 95.4828 42.2269H92.0539L91.5337 45.2775H94.9391C99.5978 45.2775 101.773 43.9295 102.814 38.2539L104.54 28.5109H101.324L100.615 30.4028H100.614ZM99.7868 34.4704C99.5031 35.9837 98.5334 37.0715 96.9962 37.0715C95.1753 37.0715 94.6551 35.6526 94.9624 34.0446C95.2936 32.4128 96.3814 31.4906 97.8239 31.4906C99.5975 31.4906 100.094 32.8857 99.7868 34.4702V34.4704ZM114.094 28.298C112.651 28.298 111.493 28.7946 110.618 29.8116L111.8 23.6393H108.087L104.8 40.5479H108.513L109.814 33.8553C110.121 32.2946 110.949 31.4906 112.202 31.4906C113.408 31.4906 113.976 32.2945 113.574 34.3519L112.391 40.5477H116.104L117.357 34.0917C118.09 30.2136 116.908 28.2979 114.094 28.2979V28.298ZM128.59 31.6798L129.134 28.5109H125.729L126.391 24.8217H123.908L122.205 28.5109H119.462L118.918 31.6798H121.472L120.786 35.4399C120.124 39.2709 121.661 40.5479 124.57 40.5479H127.361L127.928 37.2608H125.729C124.57 37.2608 124.263 36.7643 124.476 35.5818L125.161 31.6798H128.59ZM138.452 28.298C136.914 28.298 135.519 28.8892 134.526 30.1189L134.479 28.5109H130.872L130.849 31.0649L129.17 40.5479H132.875L134.006 34.1628C134.337 32.2946 135.117 31.4907 136.394 31.4907C137.624 31.4907 138.168 32.2946 137.837 34.1155L136.678 40.5479H140.391L141.621 33.6663C142.212 30.4028 141.337 28.298 138.452 28.298ZM147.178 26.9264C148.691 26.9264 149.685 26.0515 149.685 24.7271C149.685 23.6866 149.023 23.1189 147.675 23.1189C146.114 23.1189 145.168 23.9466 145.168 25.2236C145.168 26.3351 145.83 26.9263 147.178 26.9263V26.9264ZM146.516 40.5479L147.06 37.3554L148.644 28.5111H144.931L144.364 31.6799L143.347 37.3554L142.803 40.5479H146.516H146.516ZM158.505 28.298C156.968 28.298 155.573 28.8892 154.58 30.1189L154.533 28.5109H150.926L150.903 31.0649L149.224 40.5479H152.928L154.06 34.1628C154.391 32.2946 155.171 31.4907 156.448 31.4907C157.678 31.4907 158.222 32.2946 157.891 34.1155L156.732 40.5479H160.445L161.674 33.6663C162.266 30.4028 161.391 28.298 158.505 28.298ZM172.789 30.4028C172.198 29.0785 171.016 28.298 169.218 28.298C166.38 28.298 164.039 30.2609 163.472 33.619C162.81 37.379 164.229 40.2877 167.752 40.2877C169.076 40.2877 170.306 39.8621 171.11 38.7505L170.992 39.3653C170.566 41.7301 169.62 42.2269 167.657 42.2269H164.229L163.708 45.2775H167.114C171.772 45.2775 173.948 43.9295 174.989 38.2539L176.715 28.5109H173.499L172.789 30.4028H172.789ZM171.961 34.4704C171.678 35.9837 170.708 37.0715 169.171 37.0715C167.35 37.0715 166.83 35.6526 167.137 34.0446C167.468 32.4128 168.556 31.4906 169.999 31.4906C171.772 31.4906 172.269 32.8857 171.961 34.4702V34.4704Z" fill="#182F6C"/>
<path d="M188.419 31.6384C188.8 29.5208 187.065 28.4793 184.426 28.4793H179.167L177.014 40.63H183.263C185.971 40.63 187.603 39.3975 187.967 37.3146C188.262 35.6655 187.62 34.2942 185.867 33.9298C187.308 33.6347 188.21 32.8883 188.419 31.6384H188.419ZM183.767 30.8574C184.982 30.8574 185.589 31.1873 185.416 32.1245C185.294 32.8188 184.669 33.2354 183.558 33.2354H181.128L181.562 30.8572H183.767L183.767 30.8574ZM185.103 36.8459C184.964 37.7138 184.201 38.2 182.864 38.2H180.243L180.764 35.3185H183.159C184.583 35.3185 185.294 35.7005 185.103 36.8461V36.8459ZM191.231 28.4793L189.078 40.63H191.873L192.619 36.4119H194.668L196.265 40.63H199.233L197.48 36.1516C199.164 35.6829 200.153 34.5721 200.465 32.8016C200.951 30.0069 199.146 28.4793 196.074 28.4793H191.231ZM197.618 32.6799C197.428 33.7561 196.612 34.1033 195.136 34.1033H193.036L193.591 30.9442H195.449C196.872 30.9442 197.844 31.3433 197.618 32.6799Z" fill="#FECE00"/>
</svg>
